<svg width="512" height="512" viewBox="0 0 512 512" fill="none" xmlns="http://www.w3.org/2000/svg">
  <title>Bkper MCP logo</title>
  <desc>A Bkper-branded app icon for the Model Context Protocol connector.</desc>
  <rect x="28" y="28" width="456" height="456" rx="92" fill="#282c34" stroke="#2285c0" stroke-width="28"/>
  <g transform="translate(58 52) scale(2)" fill="none" stroke-width="12" stroke-linecap="round" stroke-linejoin="round">
    <path d="M25 97.8528L92.8822 29.9706C102.255 20.598 117.451 20.598 126.823 29.9706C136.196 39.3431 136.196 54.5391 126.823 63.9117L76.2652 114.47" stroke="#d14836"/>
    <path d="M109.853 46.9411L59.6482 97.1457C50.2756 106.518 50.2756 121.714 59.6482 131.087C69.0208 140.459 84.2167 140.459 93.5893 131.087L143.794 80.8822" stroke="#3aaa57"/>
    <path d="M76.2652 114.47L126.823 63.9117C136.196 54.5391 151.392 54.5391 160.765 63.9117L161.118 64.2652C170.491 73.6378 170.491 88.8338 161.118 98.2063L99.7248 159.6C96.6006 162.724 96.6006 167.789 99.7248 170.913L112.331 183.52" stroke="#f7b300"/>
  </g>
</svg>
