<svg version="1.1" viewBox="0.0 0.0 1460.0892388451443 1460.0892388451443" fill="none" stroke="none" stroke-linecap="square" stroke-miterlimit="10" xmlns:xlink="http://www.w3.org/1999/xlink" xmlns="http://www.w3.org/2000/svg"><clipPath id="p.0"><path d="m0 0l1460.0892 0l0 1460.0892l-1460.0892 0l0 -1460.0892z" clip-rule="nonzero"/></clipPath><g clip-path="url(#p.0)"><path fill="#000000" fill-opacity="0.0" d="m0 0l1460.0892 0l0 1460.0892l-1460.0892 0z" fill-rule="evenodd"/><path fill="#f7b300" d="m941.97034 587.06885l0 0c238.93005 -0.021972656 432.80518 191.57147 433.42078 428.3199c0.6154785 236.74835 -192.26099 429.32904 -431.18793 430.52692l-1.4606323 -286.06287l0 0c81.21875 -0.3927002 146.78845 -64.681885 146.58301 -143.72052c-0.2055664 -79.038574 -66.10864 -143.00415 -147.32843 -142.99695z" fill-rule="evenodd"/><path fill="#3aaa57" d="m944.0873 1159.6167l0 286.34778l-429.4452 0l0 -286.34778z" fill-rule="evenodd"/><path fill="#2285c0" d="m371.50153 157.39487l286.30957 0l0 1145.4293l-286.30957 0z" fill-rule="evenodd"/><path fill="#2285c0" d="m371.46912 157.29863l0 0c0 -79.07276 64.09259 -143.17389 143.15479 -143.17389l0 0c37.96704 0 74.37903 15.084349 101.22571 41.93466c26.84674 26.850311 41.929077 63.26715 41.929077 101.239235l0 0c0 79.072754 -64.09259 143.17387 -143.15479 143.17387l0 0c-79.062195 0 -143.15479 -64.10112 -143.15479 -143.17387z" fill-rule="evenodd"/><path fill="#3aaa57" d="m800.931 1302.7906l0 0c0 -79.072754 64.09259 -143.17395 143.15479 -143.17395l0 0c37.96698 0 74.37897 15.084351 101.22571 41.934692c26.846802 26.850342 41.929077 63.26709 41.929077 101.23926l0 0c0 79.072754 -64.09259 143.17383 -143.15479 143.17383l0 0c-79.062195 0 -143.15479 -64.101074 -143.15479 -143.17383z" fill-rule="evenodd"/><path fill="#2285c0" d="m514.63196 1159.6167l143.09747 0l0 143.21216l-143.09747 0z" fill-rule="evenodd"/><path fill="#2285c0" d="m371.46912 1302.7906l0 0c0 -79.072754 64.09259 -143.17395 143.15479 -143.17395l0 0c37.96704 0 74.37903 15.084351 101.22571 41.934692c26.84674 26.850342 41.929077 63.26709 41.929077 101.23926l0 0c0 79.072754 -64.09259 143.17383 -143.15479 143.17383l0 0c-79.062195 0 -143.15479 -64.101074 -143.15479 -143.17383z" fill-rule="evenodd"/><path fill="#ce352c" d="m514.1049 586.8707l143.6325 0l0 286.23315l-143.6325 0z" fill-rule="evenodd"/><path fill="#1e77ad" d="m657.8247 812.7277l0 346.88898l-259.97562 -346.88898z" fill-rule="evenodd"/><path fill="#d14836" d="m371.46912 729.9873l0 0c0 -79.04108 64.09259 -143.11658 143.15479 -143.11658l0 0c37.96704 0 74.37903 15.078308 101.22571 41.917908c26.84674 26.839539 41.929077 63.24182 41.929077 101.19867l0 0c0 79.04108 -64.09259 143.11658 -143.15479 143.11658l0 0c-79.062195 0 -143.15479 -64.0755 -143.15479 -143.11658z" fill-rule="evenodd"/><path fill="#d14836" d="m944.0917 586.9381l0 286.2331l-429.48346 0l0 -286.2331z" fill-rule="evenodd"/><path fill="#f7b300" d="m800.931 730.0446l0 0c0 -79.072754 64.09259 -143.17389 143.15479 -143.17389l0 0c37.96698 0 74.37897 15.084351 101.22571 41.934692c26.846802 26.85028 41.929077 63.26715 41.929077 101.2392l0 0c0 79.072754 -64.09259 143.17389 -143.15479 143.17389l0 0c-79.062195 0 -143.15479 -64.101135 -143.15479 -143.17389z" fill-rule="evenodd"/><path fill="#999999" d="m115.890594 1177.669l185.52219 106.94092l-10.31955 17.887085l-185.52216 -106.940796z" fill-rule="evenodd"/><path fill="#999999" d="m269.38818 1302.5067l0 0c0 -11.609741 9.41153 -21.021362 21.02124 -21.021362l0 0c5.5751953 0 10.922028 2.2147217 14.864288 6.1569824c3.9422302 3.9422607 6.1569824 9.289185 6.1569824 14.86438l0 0c0 11.609619 -9.41153 21.02124 -21.02127 21.02124l0 0c-11.609711 0 -21.02124 -9.411621 -21.02124 -21.02124z" fill-rule="evenodd"/><path fill="#999999" d="m98.17314 1188.7771l198.51714 114.73779l-198.51714 114.737915z" fill-rule="evenodd"/><path fill="#999999" d="m84.69675 1196.0522l0 0c0 -11.609741 9.411537 -21.021362 21.021255 -21.021362l0 0c5.5751877 0 10.922028 2.2147217 14.864281 6.1569824c3.9422455 3.9422607 6.1569824 9.289185 6.1569824 14.86438l0 0c0 11.609619 -9.411537 21.02124 -21.021263 21.02124l0 0c-11.609718 0 -21.021255 -9.411621 -21.021255 -21.02124z" fill-rule="evenodd"/><path fill="#999999" d="m105.44723 1195.2838l-0.038223267 213.88171l-20.677277 0l0.038223267 -213.88171z" fill-rule="evenodd"/><path fill="#999999" d="m301.30157 1320.517l-185.25464 106.90271l-10.35775 -17.887207l185.25462 -106.90271z" fill-rule="evenodd"/><path fill="#999999" d="m84.71436 1409.0968l0 0c0 -11.609741 9.411537 -21.02124 21.021255 -21.02124l0 0c5.5751877 0 10.922028 2.2147217 14.864281 6.1569824c3.9422455 3.9422607 6.1569824 9.2890625 6.1569824 14.864258l0 0c0 11.609741 -9.411537 21.02124 -21.021263 21.02124l0 0c-11.609718 0 -21.021255 -9.411499 -21.021255 -21.02124z" fill-rule="evenodd"/></g></svg>